Coordinates
version=1
nRows=17
nColumns=40
inDegrees=yes

Units are S.I. units (second, meters, Newtons, ...)
Angles are in degrees.

endheader
time	pelvis_tilt	pelvis_list	pelvis_rotation	pelvis_tx	pelvis_ty	pelvis_tz	hip_flexion_r	hip_adduction_r	hip_rotation_r	knee_angle_r	knee_angle_r_beta	ankle_angle_r	subtalar_angle_r	mtp_angle_r	hip_flexion_l	hip_adduction_l	hip_rotation_l	knee_angle_l	knee_angle_l_beta	ankle_angle_l	subtalar_angle_l	mtp_angle_l	lumbar_extension	lumbar_bending	lumbar_rotation	arm_flex_r	arm_add_r	arm_rot_r	elbow_flex_r	pro_sup_r	wrist_flex_r	wrist_dev_r	arm_flex_l	arm_add_l	arm_rot_l	elbow_flex_l	pro_sup_l	wrist_flex_l	wrist_dev_l
     51.72000000	     -2.58073232	     -4.58735878	     -0.09973629	      0.97663132	      0.93367332	      0.40211465	     36.12611163	     -4.24472043	     -4.09074939	     76.66230308	     76.66230308	      9.92242145	    -19.31119112	     15.70400830	     14.22894140	     -4.21706407	     -7.61438688	     21.73271850	     21.73271850	     11.82505743	    -15.08922144	     -1.91653098	    -10.35506980	      5.42470275	      1.04777652	      9.29375187	    -11.87281775	     -4.33896581	     41.47131420	     43.22857980	      0.00000000	      0.00000000	     19.44900925	    -12.82299647	      3.14200956	     38.87671271	     43.55635283	      0.00000000	      0.00000000
     51.73200000	     -2.44798022	     -4.55799049	     -0.35723411	      0.97651843	      0.93425660	      0.40195791	     36.88835768	     -4.11940680	     -3.75870246	     75.23273886	     75.23273886	      9.50456008	    -19.24573808	     15.55229077	     13.25456189	     -4.15728446	     -7.84041243	     21.26295503	     21.26295503	     12.19925821	    -14.95791054	     -1.93371478	    -10.57384458	      5.57665204	      1.65003012	      6.94107641	    -12.49816205	     -4.48252764	     39.26308779	     43.34624582	      0.00000000	      0.00000000	     20.62729944	    -12.81769299	      2.95762101	     40.42908807	     43.63364882	      0.00000000	      0.00000000
     51.74400000	     -2.33005171	     -4.51965024	     -0.59998058	      0.97641951	      0.93473530	      0.40179206	     37.49383702	     -4.07051345	     -3.53928839	     73.55147628	     73.55147628	      8.58913767	    -19.20220382	     13.76198222	     12.33139949	     -4.09305748	     -8.11278338	     20.85049731	     20.85049731	     12.55295262	    -14.83221890	     -2.09868061	    -10.71740794	      5.69034545	      1.29081785	      6.50352266	    -12.25383126	     -6.08909437	     33.49870586	     43.84371428	      0.00000000	      0.00000000	     20.62767177	    -13.58383285	      2.58195382	     43.87863930	     43.87387691	      0.00000000	      0.00000000
     51.75600000	     -2.20746097	     -4.53929638	     -0.82474696	      0.97634839	      0.93529431	      0.40166461	     38.00026694	     -3.89399340	     -3.33209350	     71.73301701	     71.73301701	      8.12293863	    -19.10871396	     13.79130333	     11.32421471	     -4.05161314	     -8.26559515	     20.26111403	     20.26111403	     12.85893169	    -14.70558842	     -2.05724111	    -10.94316960	      5.92573862	      1.80979903	      4.33177936	    -12.78484447	     -6.31827456	     31.52495454	     43.95697485	      0.00000000	      0.00000000	     21.71139579	    -13.52866073	      2.24380277	     45.34989864	     43.96328584	      0.00000000	      0.00000000
     51.76800000	     -2.12961373	     -4.51692986	     -1.03167501	      0.97626954	      0.93565959	      0.40157487	     38.37166251	     -3.84035246	     -3.27269638	     69.61605626	     69.61605626	      7.18733183	    -19.05482081	     12.12700899	     10.45785874	     -3.99034877	     -8.49013164	     19.82076784	     19.82076784	     13.11029772	    -14.59047179	     -2.21463503	    -11.10165379	      6.04976662	      1.35767330	      4.12909510	    -12.62346946	     -8.30448795	     26.15631662	     44.51862465	      0.00000000	      0.00000000	     21.55101041	    -14.18242834	      1.17346260	     48.86865007	     44.29307023	      0.00000000	      0.00000000
     51.78000000	     -2.08419713	     -4.53662633	     -1.23980143	      0.97620843	      0.93595951	      0.40160515	     38.66879101	     -3.68867801	     -3.26901630	     67.31596667	     67.31596667	      6.76377722	    -18.93216811	     12.16728007	      9.59213580	     -3.96110832	     -8.66579107	     19.30883687	     19.30883687	     13.40001742	    -14.47361557	     -2.20170100	    -11.24641926	      6.25505476	      1.84866408	      2.08972572	    -13.09855716	     -8.63944794	     24.55833658	     44.63658609	      0.00000000	      0.00000000	     22.53853296	    -14.09333483	      0.76860179	     50.37013839	     44.39021385	      0.00000000	      0.00000000
     51.79200000	     -2.10469048	     -4.56794563	     -1.42120574	      0.97617379	      0.93608173	      0.40165603	     38.81022110	     -3.62496919	     -3.49387503	     64.61671874	     64.61671874	      5.77435049	    -18.82566887	     10.30691939	      8.82022937	     -3.95313265	     -8.85173103	     18.82170183	     18.82170183	     13.63083307	    -14.31536604	     -2.38787422	    -11.34028345	      6.43788315	      1.50061646	      1.28320441	    -13.16626287	    -10.56777585	     21.45228608	     45.14828812	      0.00000000	      0.00000000	     22.28147508	    -14.56797167	     -0.41534773	     53.91793099	     44.71852331	      0.00000000	      0.00000000
     51.80400000	     -2.14170249	     -4.60701430	     -1.59990880	      0.97617078	      0.93615684	      0.40189136	     38.85689696	     -3.47272464	     -3.72801139	     61.72504375	     61.72504375	      5.38248905	    -18.60823675	     10.24767401	      8.06261946	     -3.95606996	     -9.00550319	     18.32616316	     18.32616316	     13.88332819	    -14.17863084	     -2.40390801	    -11.41032686	      6.61652185	      1.94432350	     -0.65819118	    -13.54015639	    -10.92394979	     20.22158754	     45.26768822	      0.00000000	      0.00000000	     23.11252309	    -14.44981528	     -0.80368740	     55.50243394	     44.81574086	      0.00000000	      0.00000000
     51.81600000	     -2.19940883	     -4.64056827	     -1.78719284	      0.97623569	      0.93608825	      0.40223180	     38.73912187	     -3.31983407	     -4.04746437	     58.51424604	     58.51424604	      4.87799790	    -18.29799871	      9.64349704	      7.33138664	     -3.96679551	     -9.20260972	     17.85148712	     17.85148712	     14.10188397	    -13.97962587	     -2.49941646	    -11.47004304	      6.78731415	      2.23762965	     -2.52973891	    -13.81199032	    -11.37504869	     19.15673525	     45.40164710	      0.00000000	      0.00000000	     23.62040073	    -14.41518758	     -1.29455387	     57.78985357	     44.93217449	      0.00000000	      0.00000000
     51.82800000	     -2.43892844	     -4.74366084	     -1.88596925	      0.97627757	      0.93574963	      0.40269791	     38.58502729	     -3.13466771	     -4.61068633	     54.97494895	     54.97494895	      4.73402623	    -17.81313605	      9.59815120	      6.85157265	     -4.06222163	     -9.26069635	     17.43714252	     17.43714252	     14.33666153	    -13.86758475	     -2.56583949	    -11.27870740	      7.03183310	      2.16340568	     -4.12789340	    -14.07052664	    -11.56905971	     18.49047129	     45.45654335	      0.00000000	      0.00000000	     24.02500709	    -14.64032901	     -1.60593884	     59.01438531	     44.99062931	      0.00000000	      0.00000000
     51.84000000	     -2.48957244	     -4.74149252	     -2.06479074	      0.97660646	      0.93546591	      0.40335568	     37.93599852	     -3.01729029	     -5.18537643	     50.93667389	     50.93667389	      3.29277039	    -17.50807554	      5.47332529	      6.09099946	     -4.06967636	     -9.57888570	     16.94676947	     16.94676947	     14.44541277	    -13.57129391	     -3.06937930	    -11.45075242	      7.04023459	      1.78929553	     -5.58908862	    -14.18398630	    -12.94414743	     18.41319384	     45.77204998	      0.00000000	      0.00000000	     22.90204929	    -15.11534098	     -3.05719854	     64.44465171	     45.30832868	      0.00000000	      0.00000000
     51.85200000	     -2.61202286	     -4.79932459	     -2.19787359	      0.97700576	      0.93505290	      0.40416145	     37.28974001	     -2.76178078	     -5.77374504	     46.93004613	     46.93004613	      3.25358537	    -16.53761666	      5.39081459	      5.43124993	     -4.13348950	     -9.72572544	     16.50298210	     16.50298210	     14.65217505	    -13.41642671	     -3.13774821	    -11.39007812	      7.16297007	      2.05588870	     -7.27540689	    -14.36296556	    -13.13409551	     17.73762529	     45.83579271	      0.00000000	      0.00000000	     23.41577974	    -14.97732356	     -3.37186919	     65.81100568	     45.37944104	      0.00000000	      0.00000000
     51.86400000	     -2.72733188	     -4.81584249	     -2.34059129	      0.97761148	      0.93445785	      0.40515754	     36.45925700	     -2.50532963	     -6.39236855	     42.77922211	     42.77922211	      3.24522909	    -15.23147193	      5.04233029	      4.73724340	     -4.16910825	     -9.93732568	     16.04170800	     16.04170800	     14.87639212	    -13.12662452	     -3.31070028	    -11.37147669	      7.20315000	      2.31776103	     -9.00000292	    -14.43696705	    -13.40844904	     17.43101806	     45.89231287	      0.00000000	      0.00000000	     23.66172547	    -14.88029068	     -3.75169624	     67.80655090	     45.46539553	      0.00000000	      0.00000000
     51.87600000	     -2.84958749	     -4.75213923	     -2.48213520	      0.97847292	      0.93360673	      0.40631308	     35.42038038	     -2.29146660	     -7.06719482	     38.40050585	     38.40050585	      2.38680860	    -14.03349095	      2.51900735	      4.05057812	     -4.15557979	    -10.35115990	     15.61096870	     15.61096870	     15.02960390	    -12.69012381	     -3.88860774	    -11.33837345	      7.12171002	      1.87859644	    -10.66693054	    -14.41641788	    -14.54283034	     18.68243618	     46.07121283	      0.00000000	      0.00000000	     22.67346325	    -15.30471409	     -4.92593346	     72.00735675	     45.74387068	      0.00000000	      0.00000000
     51.88800000	     -3.01050811	     -4.74777593	     -2.59276026	      0.97952298	      0.93259130	      0.40766814	     34.36475946	     -1.93193596	     -7.67183014	     34.25119506	     34.25119506	      2.44982822	    -12.35501506	      2.92515697	      3.41578359	     -4.18888424	    -10.50032298	     15.21978373	     15.21978373	     15.28546109	    -12.50770436	     -4.00038573	    -11.10381930	      7.10989642	      1.99271357	    -12.05856166	    -14.38391204	    -14.67209484	     18.27855113	     46.10319042	      0.00000000	      0.00000000	     22.94864558	    -15.25440661	     -5.11170110	     73.05611783	     45.79190966	      0.00000000	      0.00000000
     51.90000000	     -2.97016840	     -4.68801578	     -2.69388713	      0.98091547	      0.93165540	      0.40911961	     33.01835534	     -1.64841192	     -8.37420169	     30.31679050	     30.31679050	      2.48559822	    -10.22111830	      3.37104787	      2.50389642	     -4.16750649	    -10.77713591	     14.76872862	     14.76872862	     15.61031140	    -12.08984905	     -4.19711870	    -11.11912115	      7.00630169	      2.18256563	    -13.54838030	    -14.32266519	    -14.91407353	     18.18468282	     46.13508208	      0.00000000	      0.00000000	     22.99483344	    -15.11571494	     -5.34128831	     74.79368551	     45.85836928	      0.00000000	      0.00000000
     51.91200000	     -2.98533040	     -4.50510361	     -2.81586947	      0.98258955	      0.93026388	      0.41077144	     31.83635826	     -1.48617560	     -9.14352471	     26.96297981	     26.96297981	      2.73915655	     -8.00324078	      4.11602651	      1.68080561	     -4.06825064	    -11.33064238	     14.43140882	     14.43140882	     16.02732276	    -11.29819130	     -4.48627630	    -11.08699674	      6.72461366	      1.83713579	    -14.95278451	    -14.17526375	    -15.90359110	     19.65466074	     46.22640535	      0.00000000	      0.00000000	     22.04217755	    -15.44812702	     -6.13712112	     78.25592013	     46.06760047	      0.00000000	      0.00000000
